<svg enable-background="new 0 0 800 800" height="1000" viewBox="0 0 1000 1000" width="1000" xmlns="http://www.w3.org/2000/svg" xmlns:xlink="http://www.w3.org/1999/xlink"><filter id="a" color-interpolation-filters="sRGB" height="1.650711" width="1.600711" x="-.275355" y="-.275355"><feFlood in="SourceGraphic" result="flood"/><feGaussianBlur in="SourceGraphic" result="blur" stdDeviation="2"/><feOffset dx="1" dy="2" in="blur" result="offset"/><feComposite in="flood" in2="offset" operator="in" result="comp1"/><feComposite in="comp1" in2="comp1" operator="atop" result="comp2"/></filter><filter id="b" color-interpolation-filters="sRGB" height="1.425" width="1.39375" x="-.18125" y="-.18125"><feFlood in="SourceGraphic" result="flood"/><feGaussianBlur in="SourceGraphic" result="blur" stdDeviation="2"/><feOffset dx="1" dy="2" in="blur" result="offset"/><feComposite in="flood" in2="offset" operator="in" result="comp1"/><feComposite in="comp1" in2="comp1" operator="atop" result="comp2"/></filter><filter id="c" color-interpolation-filters="sRGB" height="2.446024" width="2.334913" x="-.611901" y="-.611901"><feFlood in="SourceGraphic" result="flood"/><feGaussianBlur in="SourceGraphic" result="blur" stdDeviation="2"/><feOffset dx="1" dy="2" in="blur" result="offset"/><feComposite in="flood" in2="offset" operator="in" result="comp1"/><feComposite in="comp1" in2="comp1" operator="atop" result="comp2"/></filter><linearGradient id="d" gradientTransform="matrix(1 0 0 -1 100 898.7717)" gradientUnits="userSpaceOnUse" x1="400.04999" x2="400.04999" y1="798.77173" y2="-1.2283"><stop offset="0" stop-color="#4d4d4d"/><stop offset="1" stop-color="#1a1a1a"/></linearGradient><path d="m738.4 100h-476.8c-89.3 0-161.6 72.3-161.6 161.6v476.9c0 89.2 72.3 161.5 161.6 161.5h476.9c89.2 0 161.6-72.3 161.6-161.6v-476.8c-.1-89.3-72.4-161.6-161.7-161.6z" fill="url(#d)"/><g stroke-linejoin="round" stroke-width="2"><g fill="none" stroke="#000" transform="matrix(10.5 0 0 10.5 163.99962 163.99962)"><path d="m6 38 20 20z" filter="url(#a)"/><path d="m26 58h12l20-20v-12" filter="url(#b)" stroke-linecap="round"/><path d="m32 23-9 9z" filter="url(#c)"/></g><g fill="#000" stroke="#f9f9f9" transform="matrix(10.5 0 0 10.5 164 164)"><path d="m6 26h11l21-20h-12z"/><path d="m6 26v12l20 20v-11z"/><path d="m6 26h11l15 15-6 6z"/><path d="m26 58h12l20-20h-11z"/><path d="m58 38v-12l-20-20v11z"/><path d="m38 6v11l-15 15-6-6z"/><path d="m26 58v-11l15-15 6 6z"/><path d="m58 38h-11l-15-15 6-6z"/></g></g></svg>
