<svg height="48" viewBox="0 0 48 48" width="48" xmlns="http://www.w3.org/2000/svg" xmlns:xlink="http://www.w3.org/1999/xlink"><linearGradient id="a" gradientUnits="userSpaceOnUse" x1="16" x2="48" y1="0" y2="64"><stop offset="0" stop-color="#4d4d4d"/><stop offset="1" stop-color="#1a1a1a"/></linearGradient><filter id="b" color-interpolation-filters="sRGB" height="1.380203" width="1.236675" x="-.105906" y="-.157346"><feFlood in="SourceGraphic" result="flood"/><feGaussianBlur in="SourceGraphic" result="blur" stdDeviation="2"/><feOffset dx="1" dy="2" in="blur" result="offset"/><feComposite in="flood" in2="offset" operator="in" result="comp1"/><feComposite in="comp1" in2="comp1" operator="atop" result="comp2"/></filter><g transform="matrix(.625 0 0 .625 4 4)"><path d="m4 0h56a4 4 45 0 1 4 4v56a4 4 135 0 1 -4 4h-56a4 4 45 0 1 -4-4v-56a4 4 135 0 1 4-4z" fill="url(#a)" height="64" width="64"/><g stroke-linejoin="round" stroke-width="2"><g fill="none" filter="url(#b)" stroke="#000"><path d="m6 38 20 20z"/><path d="m26 58h12l20-20v-12" stroke-linecap="round"/><path d="m32 23-9 9z"/></g><g fill="#000" stroke="#f9f9f9"><path d="m6 26h11l21-20h-12z"/><path d="m6 26v12l20 20v-11z"/><path d="m6 26h11l15 15-6 6z"/><path d="m26 58h12l20-20h-11z"/><path d="m58 38v-12l-20-20v11z"/><path d="m38 6v11l-15 15-6-6z"/><path d="m26 58v-11l15-15 6 6z"/><path d="m58 38h-11l-15-15 6-6z"/></g></g></g></svg>